<svg xmlns="http://www.w3.org/2000/svg" width="20" height="24" viewBox="0 0 20 24" fill="none">
    <path fill-rule="evenodd" clip-rule="evenodd" d="M6.38366 0.333336H13.582C16.7437 0.333336 19.2987 1.58167 19.3337 4.755V22.465C19.3337 22.6633 19.287 22.8617 19.1937 23.0367C19.042 23.3167 18.7853 23.5267 18.4703 23.62C18.167 23.7133 17.8287 23.6667 17.5487 23.5033L9.98866 19.7233L2.41699 23.5033C2.24316 23.5955 2.04366 23.655 1.84533 23.655C1.19199 23.655 0.666992 23.1183 0.666992 22.465V4.755C0.666992 1.58167 3.23366 0.333336 6.38366 0.333336ZM5.59033 9.22334H14.3753C14.877 9.22334 15.2853 8.81384 15.2853 8.30167C15.2853 7.78834 14.877 7.38 14.3753 7.38H5.59033C5.08866 7.38 4.68033 7.78834 4.68033 8.30167C4.68033 8.81384 5.08866 9.22334 5.59033 9.22334Z" fill="currentColor"/>
</svg> 