<svg xmlns="http://www.w3.org/2000/svg" width="24" height="24" viewBox="0 0 24 24" fill="none">
    <path d="M15.1132 13.3667C14.708 13.3667 14.3728 13.4995 14.1205 13.7471C13.8682 13.9947 13.7299 14.32 13.7299 14.7059C13.7299 15.1032 13.8682 15.4313 14.1422 15.6793C14.4167 15.9267 14.7518 16.0484 15.1575 16.0484C15.5744 16.0484 15.9124 15.9266 16.1719 15.684C16.431 15.441 16.5689 15.1173 16.5689 14.7192C16.5689 14.3333 16.4344 14.0178 16.1719 13.77C15.9085 13.5224 15.5603 13.3667 15.1132 13.3667Z" fill="currentColor"/>
    <path d="M8.9297 13.4227C8.66532 13.4227 8.44325 13.4944 8.26353 13.6366C8.0842 13.7791 7.97889 13.9625 7.96348 14.1854L7.95764 14.2831L7.95612 14.3809V16.9784H8.90738V15.6462H8.94929C9.09193 15.8335 9.27747 15.9638 9.49954 16.0392C9.72238 16.1143 9.98714 16.1507 10.292 16.1507C10.7975 16.1507 11.2047 16.0021 11.5128 15.7055C11.821 15.4084 11.9746 14.9914 11.9746 14.4467C11.9746 13.9264 11.8252 13.5126 11.5275 13.2068C11.2295 12.9005 10.8324 12.7471 10.3391 12.7471C10.0534 12.7471 9.8 12.7875 9.57754 12.8692C9.35471 12.9507 9.1742 13.0814 9.02689 13.2617L8.98996 13.312L8.9297 13.4227ZM10.2339 15.2811C9.94611 15.2811 9.71944 15.1791 9.54447 14.9784C9.37044 14.7778 9.28343 14.5164 9.28343 14.2006C9.28343 13.8767 9.37548 13.6083 9.56143 13.4033C9.74676 13.1985 9.98524 13.0967 10.2733 13.0967C10.5538 13.0967 10.7737 13.1883 10.9327 13.3712C11.0917 13.5542 11.1726 13.798 11.1726 14.09C11.1726 14.4153 11.089 14.6824 10.9246 14.8928C10.7603 15.1029 10.5288 15.2081 10.2339 15.2081V15.2811Z" fill="currentColor"/>
    <path d="M21.3368 2.5H15.9648C15.3758 2.5 14.8024 2.73828 14.3824 3.15782L3.44533 14.1265C2.55289 15.0189 2.55289 16.4602 3.44533 17.3528L8.67258 22.5801C9.56513 23.4723 11.0065 23.4723 11.899 22.5801L22.8361 11.6114C23.2558 11.1915 23.4937 10.6183 23.4937 10.0292V4.65704C23.5 3.4655 22.5283 2.5 21.3368 2.5ZM19.2501 8.0636C18.1889 8.0636 17.3232 7.1978 17.3232 6.13639C17.3232 5.075 18.1889 4.20926 19.2501 4.20926C20.3113 4.20926 21.177 5.075 21.177 6.13639C21.177 7.1978 20.3113 8.0636 19.2501 8.0636Z" fill="currentColor"/>
    <path d="M5.74828 13.4436H5.16992V16.978H6.15039V14.912H6.18677L7.84557 16.978H8.4239V13.4436H7.44344V15.4797H7.40715L5.74828 13.4436Z" fill="currentColor"/>
</svg> 