<svg xmlns="http://www.w3.org/2000/svg" width="24" height="24" viewBox="0 0 24 24" fill="none">
    <path fill-rule="evenodd" clip-rule="evenodd" d="M16.0247 2.41034C15.978 2.70201 15.9547 2.99368 15.9547 3.28534C15.9547 5.91034 18.078 8.03251 20.6913 8.03251C20.983 8.03251 21.263 7.99868 21.5547 7.95201V17.3658C21.5547 21.322 19.2213 23.667 15.2547 23.667H6.63417C2.66634 23.667 0.333008 21.322 0.333008 17.3658V8.73368C0.333008 4.76701 2.66634 2.41034 6.63417 2.41034H16.0247ZM4.68584 15.6287L4.61467 15.7337C4.41634 16.1058 4.50967 16.5842 4.85967 16.842C5.02301 16.947 5.19801 17.017 5.39634 17.017C5.66584 17.0287 5.92134 16.8875 6.08467 16.667L9.01301 12.8975L12.338 15.3953L12.443 15.4642C12.8163 15.6625 13.283 15.5703 13.5513 15.2192L16.923 10.8687L16.8763 10.892C17.063 10.6353 17.098 10.3087 16.9697 10.017C16.8425 9.72534 16.5613 9.52701 16.2592 9.50368C15.943 9.46868 15.6292 9.60868 15.4413 9.86535L12.6192 13.517L9.38634 10.9737C9.18801 10.822 8.95467 10.7625 8.72134 10.787C8.48917 10.822 8.27917 10.9492 8.13801 11.1358L4.68584 15.6287ZM18.0431 3.145C18.0431 1.59333 19.3031 0.333328 20.8548 0.333328C22.4065 0.333328 23.6665 1.59333 23.6665 3.145C23.6665 4.69666 22.4065 5.95666 20.8548 5.95666C19.3031 5.95666 18.0431 4.69666 18.0431 3.145Z" fill="currentColor"/>
</svg> 