<svg xmlns="http://www.w3.org/2000/svg" width="28" height="28" viewBox="0 0 28 28" fill="none">
    <path fill-rule="evenodd" clip-rule="evenodd" d="M4.04155 23.9581C5.7501 25.6667 8.49996 25.6667 13.9997 25.6667C19.4994 25.6667 22.2493 25.6667 23.9578 23.9581C25.6663 22.2496 25.6663 19.4997 25.6663 14C25.6663 8.50028 25.6663 5.75042 23.9578 4.04188C22.2493 2.33333 19.4994 2.33333 13.9997 2.33333C8.49996 2.33333 5.7501 2.33333 4.04155 4.04188C2.33301 5.75042 2.33301 8.50028 2.33301 14C2.33301 19.4997 2.33301 22.2496 4.04155 23.9581ZM21.8747 18.6667C21.8747 19.1499 21.4829 19.5417 20.9997 19.5417H6.99967C6.51643 19.5417 6.12467 19.1499 6.12467 18.6667C6.12467 18.1834 6.51643 17.7917 6.99967 17.7917H20.9997C21.4829 17.7917 21.8747 18.1834 21.8747 18.6667ZM20.9997 14.875C21.4829 14.875 21.8747 14.4833 21.8747 14C21.8747 13.5168 21.4829 13.125 20.9997 13.125H6.99967C6.51643 13.125 6.12467 13.5168 6.12467 14C6.12467 14.4833 6.51643 14.875 6.99967 14.875H20.9997ZM21.8747 9.33333C21.8747 9.81658 21.4829 10.2083 20.9997 10.2083H6.99967C6.51643 10.2083 6.12467 9.81658 6.12467 9.33333C6.12467 8.85009 6.51643 8.45833 6.99967 8.45833H20.9997C21.4829 8.45833 21.8747 8.85009 21.8747 9.33333Z" fill="currentColor"/>
</svg> 