<svg xmlns="http://www.w3.org/2000/svg" width="28" height="28" viewBox="0 0 28 28" fill="none">
    <path fill-rule="evenodd" clip-rule="evenodd" d="M13.9997 2.33333C7.55635 2.33333 2.33301 7.55667 2.33301 14C2.33301 20.4433 7.55635 25.6667 13.9997 25.6667C20.443 25.6667 25.6663 20.4433 25.6663 14C25.6663 7.55667 20.443 2.33333 13.9997 2.33333ZM13.0983 9.9972L10.7474 11.8693C9.76112 12.6548 9.26796 13.0475 9.36422 13.486L9.36934 13.5077C9.47901 13.9435 10.1041 14.111 11.3544 14.446C12.0491 14.6321 12.3965 14.7252 12.5595 14.9885L12.5679 15.0024C12.7251 15.2689 12.6356 15.6027 12.4567 16.2702L12.41 16.4446C11.9141 18.2954 11.6661 19.2208 12.1437 19.5196C12.6212 19.8185 13.381 19.2134 14.9006 18.0033L17.2515 16.1312C18.2379 15.3457 18.731 14.953 18.6348 14.5145L18.6297 14.4928C18.52 14.057 17.8949 13.8895 16.6446 13.5545C15.9499 13.3684 15.6025 13.2753 15.4395 13.012L15.4311 12.9981C15.2739 12.7316 15.3634 12.3979 15.5422 11.7303L15.589 11.5558C16.0849 9.70508 16.3328 8.77971 15.8553 8.48086C15.3777 8.18202 14.6179 8.78708 13.0983 9.9972Z" fill="currentColor"/>
</svg> 