<svg xmlns="http://www.w3.org/2000/svg" width="24" height="24" viewBox="0 0 24 24" fill="none">
    <path fill-rule="evenodd" clip-rule="evenodd" d="M21.8031 13.8434C22.2204 14.0651 22.5423 14.4151 22.7688 14.7651C23.21 15.4884 23.1742 16.3751 22.745 17.1568L21.9104 18.5568C21.4692 19.3034 20.6465 19.7701 19.8 19.7701C19.3827 19.7701 18.9177 19.6534 18.5362 19.4201C18.2262 19.2218 17.8685 19.1518 17.487 19.1518C16.3066 19.1518 15.317 20.1201 15.2813 21.2751C15.2813 22.6168 14.1844 23.6668 12.8132 23.6668H11.1917C9.80869 23.6668 8.71179 22.6168 8.71179 21.2751C8.68794 20.1201 7.69835 19.1518 6.51799 19.1518C6.12453 19.1518 5.76685 19.2218 5.46878 19.4201C5.08725 19.6534 4.61033 19.7701 4.20496 19.7701C3.34651 19.7701 2.52384 19.3034 2.08269 18.5568L1.26002 17.1568C0.81887 16.3984 0.795025 15.4884 1.23617 14.7651C1.42694 14.4151 1.78462 14.0651 2.19 13.8434C2.52384 13.6801 2.73845 13.4118 2.94114 13.0968C3.53728 12.0934 3.17959 10.7751 2.16615 10.1801C0.98579 9.5151 0.604259 8.03343 1.28386 6.87844L2.08269 5.50177C2.77422 4.34677 4.25265 3.93844 5.44493 4.6151C6.48222 5.1751 7.8295 4.80177 8.43756 3.8101C8.62833 3.48343 8.73563 3.13343 8.71179 2.78343C8.68794 2.32843 8.81909 1.89677 9.04563 1.54677C9.48677 0.823435 10.2856 0.356768 11.156 0.333435H12.8371C13.7194 0.333435 14.5182 0.823435 14.9594 1.54677C15.174 1.89677 15.317 2.32843 15.2813 2.78343C15.2574 3.13343 15.3647 3.48343 15.5555 3.8101C16.1636 4.80177 17.5108 5.1751 18.5601 4.6151C19.7404 3.93844 21.2308 4.34677 21.9104 5.50177L22.7092 6.87844C23.4007 8.03343 23.0192 9.5151 21.8269 10.1801C20.8135 10.7751 20.4558 12.0934 21.0638 13.0968C21.2546 13.4118 21.4692 13.6801 21.8031 13.8434ZM8.62833 12.0118C8.62833 13.8434 10.1425 15.3018 12.0144 15.3018C13.8863 15.3018 15.3647 13.8434 15.3647 12.0118C15.3647 10.1801 13.8863 8.7101 12.0144 8.7101C10.1425 8.7101 8.62833 10.1801 8.62833 12.0118Z" fill="currentColor"/>
</svg> 