<svg xmlns="http://www.w3.org/2000/svg" width="24" height="24" viewBox="0 0 24 24" fill="none">
    <path d="M19.3153 8.96571H16.4725V5.09639C16.4725 3.66244 15.31 2.5 13.8761 2.5H10.1239C8.69003 2.5 7.52748 3.66255 7.52748 5.09639V8.96571H4.68474C3.75387 8.96571 3 9.71958 3 10.6504V19.8153C3 20.7461 3.75387 21.5 4.68474 21.5H19.3153C20.2461 21.5 21 20.7461 21 19.8153V10.6504C21 9.71958 20.2461 8.96571 19.3153 8.96571ZM9.09724 5.09639C9.09724 4.52887 9.55841 4.0677 10.1259 4.0677H13.878C14.4456 4.0677 14.9067 4.52887 14.9067 5.09639V8.96571H9.09724V5.09639Z" fill="currentColor"/>
</svg> 