<svg width="28" height="28" viewBox="0 0 28 28" fill="none" xmlns="http://www.w3.org/2000/svg">
<path fill-rule="evenodd" clip-rule="evenodd" d="M4.04188 23.958C5.75042 25.6666 8.50028 25.6666 14 25.6666C19.4997 25.6666 22.2496 25.6666 23.9581 23.958C25.6667 22.2495 25.6667 19.4996 25.6667 13.9999C25.6667 8.5002 25.6667 5.75034 23.9581 4.0418C22.2496 2.33325 19.4997 2.33325 14 2.33325C8.50028 2.33325 5.75042 2.33325 4.04188 4.0418C2.33333 5.75034 2.33333 8.5002 2.33333 13.9999C2.33333 19.4996 2.33333 22.2495 4.04188 23.958ZM21.875 18.6666C21.875 19.1498 21.4832 19.5416 21 19.5416H7C6.51675 19.5416 6.125 19.1498 6.125 18.6666C6.125 18.1833 6.51675 17.7916 7 17.7916H21C21.4832 17.7916 21.875 18.1833 21.875 18.6666ZM21 14.8749C21.4832 14.8749 21.875 14.4832 21.875 13.9999C21.875 13.5167 21.4832 13.1249 21 13.1249H7C6.51675 13.1249 6.125 13.5167 6.125 13.9999C6.125 14.4832 6.51675 14.8749 7 14.8749H21ZM21.875 9.33325C21.875 9.8165 21.4832 10.2083 21 10.2083H7C6.51675 10.2083 6.125 9.8165 6.125 9.33325C6.125 8.85 6.51675 8.45825 7 8.45825H21C21.4832 8.45825 21.875 8.85 21.875 9.33325Z" fill="#FFB9AD"/>
</svg>
