<svg width="28" height="28" viewBox="0 0 28 28" fill="none" xmlns="http://www.w3.org/2000/svg">
<path d="M10.6572 24.2355V20.6681C10.6572 19.7575 11.4009 19.0193 12.3182 19.0193H15.6714C16.1119 19.0193 16.5344 19.193 16.8458 19.5022C17.1573 19.8114 17.3323 20.2308 17.3323 20.6681V24.2355C17.3295 24.6141 17.4791 24.9781 17.7478 25.2468C18.0165 25.5155 18.3821 25.6666 18.7634 25.6666H21.0511C22.1196 25.6693 23.1452 25.2499 23.9017 24.5009C24.6582 23.7518 25.0833 22.7347 25.0833 21.674V11.5113C25.0833 10.6545 24.7008 9.84173 24.0387 9.29203L16.2564 3.12177C14.9026 2.03991 12.963 2.07484 11.6496 3.20473L4.04485 9.29203C3.35153 9.82553 2.93715 10.6407 2.91667 11.5113V21.6637C2.91667 23.8744 4.72195 25.6666 6.94887 25.6666H9.18434C9.97643 25.6666 10.6202 25.0322 10.6259 24.2459L10.6572 24.2355Z" fill="#D61301"/>
</svg>
