<svg width="36" height="35" viewBox="0 0 36 35" fill="none" xmlns="http://www.w3.org/2000/svg">
<rect width="36" height="35" rx="4" fill="#D7F9EF"/>
<path d="M18.066 23.119C17.284 23.119 16.5813 22.983 15.958 22.711C15.346 22.4277 14.8643 22.0423 14.513 21.555C14.1617 21.0563 13.9803 20.484 13.969 19.838H15.618C15.6747 20.3933 15.9013 20.8637 16.298 21.249C16.706 21.623 17.2953 21.81 18.066 21.81C18.8027 21.81 19.3807 21.6287 19.8 21.266C20.2307 20.892 20.446 20.416 20.446 19.838C20.446 19.3847 20.3213 19.0163 20.072 18.733C19.8227 18.4497 19.511 18.2343 19.137 18.087C18.763 17.9397 18.2587 17.781 17.624 17.611C16.842 17.407 16.213 17.203 15.737 16.999C15.2723 16.795 14.87 16.4777 14.53 16.047C14.2013 15.605 14.037 15.0157 14.037 14.279C14.037 13.633 14.2013 13.0607 14.53 12.562C14.8587 12.0633 15.3177 11.678 15.907 11.406C16.5077 11.134 17.1933 10.998 17.964 10.998C19.0747 10.998 19.9813 11.2757 20.684 11.831C21.398 12.3863 21.8003 13.123 21.891 14.041H20.191C20.1343 13.5877 19.8963 13.191 19.477 12.851C19.0577 12.4997 18.5023 12.324 17.811 12.324C17.165 12.324 16.638 12.494 16.23 12.834C15.822 13.1627 15.618 13.6273 15.618 14.228C15.618 14.6587 15.737 15.01 15.975 15.282C16.2243 15.554 16.5247 15.7637 16.876 15.911C17.2387 16.047 17.743 16.2057 18.389 16.387C19.171 16.6023 19.8 16.8177 20.276 17.033C20.752 17.237 21.16 17.56 21.5 18.002C21.84 18.4327 22.01 19.022 22.01 19.77C22.01 20.348 21.857 20.892 21.551 21.402C21.245 21.912 20.7917 22.3257 20.191 22.643C19.5903 22.9603 18.882 23.119 18.066 23.119Z" fill="#0BB783"/>
</svg>
