<svg width="44" height="44" viewBox="0 0 44 44" fill="none" xmlns="http://www.w3.org/2000/svg">
<rect width="44" height="44" rx="6" fill="#0DB06E"/>
<path opacity="0.4" d="M24.4183 15.4899C23.9423 15.402 23.5051 15.7058 23.4145 16.1705C23.3238 16.6352 23.6286 17.0888 24.0917 17.1798C25.4859 17.4516 26.5625 18.5309 26.8354 19.9299V19.9309C26.9131 20.3336 27.2676 20.6264 27.6759 20.6264C27.7307 20.6264 27.7855 20.6214 27.8412 20.6114C28.3043 20.5185 28.6091 20.0658 28.5185 19.6001C28.1111 17.5106 26.5027 15.8967 24.4183 15.4899Z" fill="white"/>
<path opacity="0.4" d="M24.3561 12.0079C24.133 11.976 23.9089 12.0419 23.7307 12.1838C23.5474 12.3277 23.4329 12.5356 23.408 12.7684C23.3552 13.2391 23.6948 13.6648 24.1649 13.7178C27.4065 14.0795 29.9262 16.6048 30.2907 19.8565C30.3395 20.2922 30.705 20.621 31.1412 20.621C31.174 20.621 31.2059 20.619 31.2388 20.615C31.4668 20.59 31.67 20.4771 31.8134 20.2972C31.9558 20.1174 32.0206 19.8935 31.9947 19.6647C31.5405 15.6075 28.4005 12.4586 24.3561 12.0079Z" fill="white"/>
<path fill-rule="evenodd" clip-rule="evenodd" d="M21.0317 22.9724C25.0208 26.9604 25.9258 22.3467 28.4656 24.8848C30.9143 27.3328 32.3216 27.8232 29.2192 30.9247C28.8306 31.237 26.3616 34.9943 17.6846 26.3197C9.00652 17.644 12.7616 15.1724 13.074 14.7839C16.1839 11.6738 16.6659 13.0894 19.1145 15.5373C21.6544 18.0765 17.0427 18.9844 21.0317 22.9724Z" fill="white"/>
</svg>
